<svg width="1366" height="1145" viewBox="0 0 1366 1145" fill="none" xmlns="http://www.w3.org/2000/svg">
<g filter="url(#filter0_d_559_31523)">
<path fill-rule="evenodd" clip-rule="evenodd" d="M-10.9648 1224.73C-10.9648 1224.73 -10.9653 1224.74 -10.9663 1224.74C-10.9883 1224.82 -11 1224.91 -11 1225C-11 1225.55 -10.5523 1226 -10 1226H1376.86C1377.41 1226 1377.86 1225.55 1377.86 1225C1377.86 1224.45 1377.41 1224 1376.86 1224C1376.35 1224 1375.93 1223.59 1375.93 1223.08V1052.15C1375.93 1051.64 1376.35 1051.22 1376.86 1051.22C1377.41 1051.22 1377.86 1050.78 1377.86 1050.22C1377.86 1049.67 1377.41 1049.22 1376.86 1049.22C1376.35 1049.22 1375.93 1048.81 1375.93 1048.3V877.37C1375.93 876.86 1376.35 876.447 1376.86 876.447C1377.41 876.447 1377.86 875.999 1377.86 875.447C1377.86 874.895 1377.41 874.447 1376.86 874.447C1376.35 874.447 1375.93 874.033 1375.93 873.523V702.594C1375.93 702.084 1376.35 701.671 1376.86 701.671C1377.41 701.671 1377.86 701.223 1377.86 700.671C1377.86 700.118 1377.41 699.671 1376.86 699.671C1376.35 699.671 1375.93 699.257 1375.93 698.747V527.817C1375.93 527.307 1376.35 526.894 1376.86 526.894C1377.41 526.894 1377.86 526.446 1377.86 525.894C1377.86 525.342 1377.41 524.894 1376.86 524.894C1376.35 524.894 1375.93 524.48 1375.93 523.97V353.041C1375.93 352.531 1376.35 352.118 1376.86 352.118C1377.41 352.118 1377.86 351.67 1377.86 351.118C1377.86 350.565 1377.41 350.118 1376.86 350.118C1376.35 350.118 1375.93 349.704 1375.93 349.194V178.265C1375.93 177.755 1376.35 177.342 1376.86 177.342C1377.41 177.342 1377.86 176.894 1377.86 176.342C1377.86 175.789 1377.41 175.342 1376.86 175.342C1376.35 175.342 1375.93 174.928 1375.93 174.418V3.48853C1375.93 2.97852 1376.35 2.56506 1376.86 2.56506C1377.41 2.56506 1377.86 2.11731 1377.86 1.56506C1377.86 1.01282 1377.41 0.565063 1376.86 0.565063H1374.96L1374.93 0.564697L1374.91 0.565063H1176.83L1176.8 0.564697L1176.78 0.565063H978.705L978.678 0.564697L978.65 0.565063H780.578L780.551 0.564697L780.523 0.565063H582.449L582.422 0.564697L582.395 0.565063H384.324L384.297 0.564697L384.27 0.565063H186.193L186.166 0.564697L186.139 0.565063H-9.93752L-9.96484 0.564697L-9.99217 0.565063H-9.99999C-10.5523 0.565063 -11 1.01282 -11 1.56506C-11 1.74219 -10.9648 1.91858 -10.9648 2.09583V175.811C-10.9648 175.988 -11 176.164 -11 176.342C-11 176.519 -10.9648 176.695 -10.9648 176.872V350.587C-10.9648 350.764 -11 350.941 -11 351.118C-11 351.295 -10.9648 351.471 -10.9648 351.648V525.363C-10.9648 525.54 -11 525.717 -11 525.894C-11 526.071 -10.9648 526.247 -10.9648 526.425V700.14C-10.9648 700.317 -11 700.494 -11 700.671C-11 700.848 -10.9648 701.024 -10.9648 701.201V874.916C-10.9648 875.093 -11 875.27 -11 875.447C-11 875.624 -10.9648 875.8 -10.9648 875.978V1049.69C-10.9648 1049.87 -11 1050.05 -11 1050.22C-11 1050.4 -10.9648 1050.58 -10.9648 1050.75V1224.73ZM1373.93 1216C1373.93 1220.42 1370.35 1224 1365.93 1224H1185.8C1181.39 1224 1177.8 1220.42 1177.8 1216V1059.22C1177.8 1054.81 1181.39 1051.22 1185.8 1051.22H1365.93C1370.35 1051.22 1373.93 1054.81 1373.93 1059.22V1216ZM1175.8 1216C1175.8 1220.42 1172.22 1224 1167.8 1224H987.678C983.259 1224 979.678 1220.42 979.678 1216V1059.22C979.678 1054.81 983.259 1051.22 987.678 1051.22H1167.8C1172.22 1051.22 1175.8 1054.81 1175.8 1059.22V1216ZM977.678 1216C977.678 1220.42 974.096 1224 969.678 1224H789.551C785.133 1224 781.551 1220.42 781.551 1216V1059.22C781.551 1054.81 785.133 1051.22 789.551 1051.22H969.678C974.096 1051.22 977.678 1054.81 977.678 1059.22V1216ZM779.551 1216C779.551 1220.42 775.969 1224 771.551 1224H591.422C587.004 1224 583.422 1220.42 583.422 1216V1059.22C583.422 1054.81 587.004 1051.22 591.422 1051.22H771.551C775.969 1051.22 779.551 1054.81 779.551 1059.22V1216ZM581.422 1216C581.422 1220.42 577.84 1224 573.422 1224H393.297C388.879 1224 385.297 1220.42 385.297 1216V1059.22C385.297 1054.81 388.879 1051.22 393.297 1051.22H573.422C577.84 1051.22 581.422 1054.81 581.422 1059.22V1216ZM383.297 1216C383.297 1220.42 379.715 1224 375.297 1224H195.166C190.748 1224 187.166 1220.42 187.166 1216V1059.22C187.166 1054.81 190.748 1051.22 195.166 1051.22H375.297C379.715 1051.22 383.297 1054.81 383.297 1059.22V1216ZM185.166 1216C185.166 1220.42 181.584 1224 177.166 1224H-0.964839C-5.38312 1224 -8.96484 1220.42 -8.96484 1216V1059.22C-8.96484 1054.81 -5.38312 1051.22 -0.964844 1051.22H177.166C181.584 1051.22 185.166 1054.81 185.166 1059.22V1216ZM-8.96484 1041.22C-8.96484 1045.64 -5.38312 1049.22 -0.964839 1049.22H177.166C181.584 1049.22 185.166 1045.64 185.166 1041.22V884.447C185.166 880.029 181.584 876.447 177.166 876.447H-0.964844C-5.38312 876.447 -8.96484 880.029 -8.96484 884.447V1041.22ZM1177.8 1041.22C1177.8 1045.64 1181.39 1049.22 1185.8 1049.22H1365.93C1370.35 1049.22 1373.93 1045.64 1373.93 1041.22V884.447C1373.93 880.029 1370.35 876.447 1365.93 876.447H1185.8C1181.39 876.447 1177.8 880.029 1177.8 884.447V1041.22ZM979.678 1041.22C979.678 1045.64 983.259 1049.22 987.678 1049.22H1167.8C1172.22 1049.22 1175.8 1045.64 1175.8 1041.22V884.447C1175.8 880.029 1172.22 876.447 1167.8 876.447H987.678C983.259 876.447 979.678 880.029 979.678 884.447V1041.22ZM781.551 1041.22C781.551 1045.64 785.133 1049.22 789.551 1049.22H969.678C974.096 1049.22 977.678 1045.64 977.678 1041.22V884.447C977.678 880.029 974.096 876.447 969.678 876.447H789.551C785.133 876.447 781.551 880.029 781.551 884.447V1041.22ZM583.422 1041.22C583.422 1045.64 587.004 1049.22 591.422 1049.22H771.551C775.969 1049.22 779.551 1045.64 779.551 1041.22V884.447C779.551 880.029 775.969 876.447 771.551 876.447H591.422C587.004 876.447 583.422 880.029 583.422 884.447V1041.22ZM385.297 1041.22C385.297 1045.64 388.879 1049.22 393.297 1049.22H573.422C577.84 1049.22 581.422 1045.64 581.422 1041.22V884.447C581.422 880.029 577.84 876.447 573.422 876.447H393.297C388.879 876.447 385.297 880.029 385.297 884.447V1041.22ZM187.166 1041.22C187.166 1045.64 190.748 1049.22 195.166 1049.22H375.297C379.715 1049.22 383.297 1045.64 383.297 1041.22V884.447C383.297 880.029 379.715 876.447 375.297 876.447H195.166C190.748 876.447 187.166 880.029 187.166 884.447V1041.22ZM185.166 866.447C185.166 870.865 181.584 874.447 177.166 874.447H-0.964844C-5.38312 874.447 -8.96484 870.865 -8.96484 866.447V709.671C-8.96484 705.252 -5.38312 701.671 -0.964839 701.671H177.166C181.584 701.671 185.166 705.252 185.166 709.671V866.447ZM187.166 866.447C187.166 870.865 190.748 874.447 195.166 874.447H375.297C379.715 874.447 383.297 870.865 383.297 866.447V709.671C383.297 705.252 379.715 701.671 375.297 701.671H195.166C190.748 701.671 187.166 705.252 187.166 709.671V866.447ZM393.297 874.447C388.879 874.447 385.297 870.865 385.297 866.447V709.671C385.297 705.252 388.879 701.671 393.297 701.671H573.422C577.84 701.671 581.422 705.252 581.422 709.671V866.447C581.422 870.865 577.84 874.447 573.422 874.447H393.297ZM591.422 874.447C587.004 874.447 583.422 870.865 583.422 866.447V709.671C583.422 705.252 587.004 701.671 591.422 701.671H771.551C775.969 701.671 779.551 705.252 779.551 709.671V866.447C779.551 870.865 775.969 874.447 771.551 874.447H591.422ZM789.551 874.447C785.133 874.447 781.551 870.865 781.551 866.447V709.671C781.551 705.252 785.133 701.671 789.551 701.671H969.678C974.096 701.671 977.678 705.252 977.678 709.671V866.447C977.678 870.865 974.096 874.447 969.678 874.447H789.551ZM987.678 874.447C983.259 874.447 979.678 870.865 979.678 866.447V709.671C979.678 705.252 983.259 701.671 987.678 701.671H1167.8C1172.22 701.671 1175.8 705.252 1175.8 709.671V866.447C1175.8 870.865 1172.22 874.447 1167.8 874.447H987.678ZM1185.8 874.447C1181.39 874.447 1177.8 870.865 1177.8 866.447V709.671C1177.8 705.252 1181.39 701.671 1185.8 701.671H1365.93C1370.35 701.671 1373.93 705.252 1373.93 709.671V866.447C1373.93 870.865 1370.35 874.447 1365.93 874.447H1185.8ZM-8.96484 691.671C-8.96484 696.089 -5.38312 699.671 -0.964839 699.671H177.166C181.584 699.671 185.166 696.089 185.166 691.671V534.894C185.166 530.476 181.584 526.894 177.166 526.894H-0.964844C-5.38312 526.894 -8.96484 530.476 -8.96484 534.894V691.671ZM1177.8 691.671C1177.8 696.089 1181.39 699.671 1185.8 699.671H1365.93C1370.35 699.671 1373.93 696.089 1373.93 691.671V534.894C1373.93 530.476 1370.35 526.894 1365.93 526.894H1185.8C1181.39 526.894 1177.8 530.476 1177.8 534.894V691.671ZM979.678 691.671C979.678 696.089 983.259 699.671 987.678 699.671H1167.8C1172.22 699.671 1175.8 696.089 1175.8 691.671V534.894C1175.8 530.476 1172.22 526.894 1167.8 526.894H987.678C983.259 526.894 979.678 530.476 979.678 534.894V691.671ZM781.551 691.671C781.551 696.089 785.133 699.671 789.551 699.671H969.678C974.096 699.671 977.678 696.089 977.678 691.671V534.894C977.678 530.476 974.096 526.894 969.678 526.894H789.551C785.133 526.894 781.551 530.476 781.551 534.894V691.671ZM583.422 691.671C583.422 696.089 587.004 699.671 591.422 699.671H771.551C775.969 699.671 779.551 696.089 779.551 691.671V534.894C779.551 530.476 775.969 526.894 771.551 526.894H591.422C587.004 526.894 583.422 530.476 583.422 534.894V691.671ZM385.297 691.671C385.297 696.089 388.879 699.671 393.297 699.671H573.422C577.84 699.671 581.422 696.089 581.422 691.671V534.894C581.422 530.476 577.84 526.894 573.422 526.894H393.297C388.879 526.894 385.297 530.476 385.297 534.894V691.671ZM187.166 691.671C187.166 696.089 190.748 699.671 195.166 699.671H375.297C379.715 699.671 383.297 696.089 383.297 691.671V534.894C383.297 530.476 379.715 526.894 375.297 526.894H195.166C190.748 526.894 187.166 530.476 187.166 534.894V691.671ZM185.166 516.894C185.166 521.312 181.584 524.894 177.166 524.894H-0.964844C-5.38312 524.894 -8.96484 521.312 -8.96484 516.894V360.118C-8.96484 355.699 -5.38312 352.118 -0.964839 352.118H177.166C181.584 352.118 185.166 355.699 185.166 360.118V516.894ZM187.166 516.894C187.166 521.312 190.748 524.894 195.166 524.894H375.297C379.715 524.894 383.297 521.312 383.297 516.894V360.118C383.297 355.699 379.715 352.118 375.297 352.118H195.166C190.748 352.118 187.166 355.699 187.166 360.118V516.894ZM393.297 524.894C388.879 524.894 385.297 521.312 385.297 516.894V360.118C385.297 355.699 388.879 352.118 393.297 352.118H573.422C577.84 352.118 581.422 355.699 581.422 360.118V516.894C581.422 521.312 577.84 524.894 573.422 524.894H393.297ZM591.422 524.894C587.004 524.894 583.422 521.312 583.422 516.894V360.118C583.422 355.699 587.004 352.118 591.422 352.118H771.551C775.969 352.118 779.551 355.699 779.551 360.118V516.894C779.551 521.312 775.969 524.894 771.551 524.894H591.422ZM789.551 524.894C785.133 524.894 781.551 521.312 781.551 516.894V360.118C781.551 355.699 785.133 352.118 789.551 352.118H969.678C974.096 352.118 977.678 355.699 977.678 360.118V516.894C977.678 521.312 974.096 524.894 969.678 524.894H789.551ZM987.678 524.894C983.259 524.894 979.678 521.312 979.678 516.894V360.118C979.678 355.699 983.259 352.118 987.678 352.118H1167.8C1172.22 352.118 1175.8 355.699 1175.8 360.118V516.894C1175.8 521.312 1172.22 524.894 1167.8 524.894H987.678ZM1185.8 524.894C1181.39 524.894 1177.8 521.312 1177.8 516.894V360.118C1177.8 355.699 1181.39 352.118 1185.8 352.118H1365.93C1370.35 352.118 1373.93 355.699 1373.93 360.118V516.894C1373.93 521.312 1370.35 524.894 1365.93 524.894H1185.8ZM-8.96484 342.118C-8.96484 346.536 -5.38312 350.118 -0.964839 350.118H177.166C181.584 350.118 185.166 346.536 185.166 342.118V185.342C185.166 180.923 181.584 177.342 177.166 177.342H-0.964844C-5.38312 177.342 -8.96484 180.923 -8.96484 185.342V342.118ZM1177.8 342.118C1177.8 346.536 1181.39 350.118 1185.8 350.118H1365.93C1370.35 350.118 1373.93 346.536 1373.93 342.118V185.342C1373.93 180.923 1370.35 177.342 1365.93 177.342H1185.8C1181.39 177.342 1177.8 180.923 1177.8 185.342V342.118ZM979.678 342.118C979.678 346.536 983.259 350.118 987.678 350.118H1167.8C1172.22 350.118 1175.8 346.536 1175.8 342.118V185.342C1175.8 180.923 1172.22 177.342 1167.8 177.342H987.678C983.259 177.342 979.678 180.923 979.678 185.342V342.118ZM781.551 342.118C781.551 346.536 785.133 350.118 789.551 350.118H969.678C974.096 350.118 977.678 346.536 977.678 342.118V185.342C977.678 180.923 974.096 177.342 969.678 177.342H789.551C785.133 177.342 781.551 180.923 781.551 185.342V342.118ZM583.422 342.118C583.422 346.536 587.004 350.118 591.422 350.118H771.551C775.969 350.118 779.551 346.536 779.551 342.118V185.342C779.551 180.923 775.969 177.342 771.551 177.342H591.422C587.004 177.342 583.422 180.923 583.422 185.342V342.118ZM385.297 342.118C385.297 346.536 388.879 350.118 393.297 350.118H573.422C577.84 350.118 581.422 346.536 581.422 342.118V185.342C581.422 180.923 577.84 177.342 573.422 177.342H393.297C388.879 177.342 385.297 180.923 385.297 185.342V342.118ZM187.166 342.118C187.166 346.536 190.748 350.118 195.166 350.118H375.297C379.715 350.118 383.297 346.536 383.297 342.118V185.342C383.297 180.923 379.715 177.342 375.297 177.342H195.166C190.748 177.342 187.166 180.923 187.166 185.342V342.118ZM185.166 167.342C185.166 171.76 181.584 175.342 177.166 175.342H-0.964844C-5.38312 175.342 -8.96484 171.76 -8.96484 167.342V10.5651C-8.96484 6.14673 -5.38312 2.56506 -0.964839 2.56506H177.166C181.584 2.56506 185.166 6.14673 185.166 10.5651V167.342ZM187.166 167.342C187.166 171.76 190.748 175.342 195.166 175.342H375.297C379.715 175.342 383.297 171.76 383.297 167.342V10.5651C383.297 6.14673 379.715 2.56506 375.297 2.56506H195.166C190.748 2.56506 187.166 6.14673 187.166 10.5651V167.342ZM393.297 175.342C388.879 175.342 385.297 171.76 385.297 167.342V10.5651C385.297 6.14673 388.879 2.56506 393.297 2.56506H573.422C577.84 2.56506 581.422 6.14673 581.422 10.5651V167.342C581.422 171.76 577.84 175.342 573.422 175.342H393.297ZM591.422 175.342C587.004 175.342 583.422 171.76 583.422 167.342V10.5651C583.422 6.14673 587.004 2.56506 591.422 2.56506H771.551C775.969 2.56506 779.551 6.14673 779.551 10.5651V167.342C779.551 171.76 775.969 175.342 771.551 175.342H591.422ZM789.551 175.342C785.133 175.342 781.551 171.76 781.551 167.342V10.5651C781.551 6.14673 785.133 2.56506 789.551 2.56506H969.678C974.096 2.56506 977.678 6.14673 977.678 10.5651V167.342C977.678 171.76 974.096 175.342 969.678 175.342H789.551ZM987.678 175.342C983.259 175.342 979.678 171.76 979.678 167.342V10.5651C979.678 6.14673 983.259 2.56506 987.678 2.56506H1167.8C1172.22 2.56506 1175.8 6.14673 1175.8 10.5651V167.342C1175.8 171.76 1172.22 175.342 1167.8 175.342H987.678ZM1185.8 175.342C1181.39 175.342 1177.8 171.76 1177.8 167.342V10.5651C1177.8 6.14673 1181.39 2.56506 1185.8 2.56506H1365.93C1370.35 2.56506 1373.93 6.14673 1373.93 10.5651V167.342C1373.93 171.76 1370.35 175.342 1365.93 175.342H1185.8Z" fill="#151515"/>
</g>
<defs>
<filter id="filter0_d_559_31523" x="-19" y="0.564697" width="1396.86" height="1233.44" filterUnits="userSpaceOnUse" color-interpolation-filters="sRGB">
<feFlood flood-opacity="0" result="BackgroundImageFix"/>
<feColorMatrix in="SourceAlpha" type="matrix" values="0 0 0 0 0 0 0 0 0 0 0 0 0 0 0 0 0 0 127 0" result="hardAlpha"/>
<feOffset dx="-8" dy="8"/>
<feComposite in2="hardAlpha" operator="out"/>
<feColorMatrix type="matrix" values="0 0 0 0 0 0 0 0 0 0 0 0 0 0 0 0 0 0 1 0"/>
<feBlend mode="normal" in2="BackgroundImageFix" result="effect1_dropShadow_559_31523"/>
<feBlend mode="normal" in="SourceGraphic" in2="effect1_dropShadow_559_31523" result="shape"/>
</filter>
</defs>
</svg>
