<svg width="1366" height="863" viewBox="0 0 1366 863" fill="none" xmlns="http://www.w3.org/2000/svg">
  <g id="Union" opacity="0.6" filter="url(#filter0_d_319_15623)">
    <path fill-rule="evenodd" clip-rule="evenodd" d="M-10.9639 853.73C-10.9639 853.732 -10.9641 853.733 -10.9644 853.735C-10.9876 853.819 -11 853.908 -11 854C-11 854.552 -10.5523 855 -10 855H1376.86C1377.41 855 1377.86 854.552 1377.86 854C1377.86 853.448 1377.41 853 1376.86 853C1376.35 853 1375.93 852.587 1375.93 852.077V681.147C1375.93 680.637 1376.35 680.224 1376.86 680.224C1377.41 680.224 1377.86 679.776 1377.86 679.224C1377.86 678.671 1377.41 678.224 1376.86 678.224C1376.35 678.224 1375.93 677.81 1375.93 677.3V506.37C1375.93 505.86 1376.35 505.447 1376.86 505.447C1377.41 505.447 1377.86 504.999 1377.86 504.447C1377.86 503.895 1377.41 503.447 1376.86 503.447C1376.35 503.447 1375.93 503.033 1375.93 502.523V331.594C1375.93 331.084 1376.35 330.671 1376.86 330.671C1377.41 330.671 1377.86 330.223 1377.86 329.671C1377.86 329.118 1377.41 328.671 1376.86 328.671C1376.35 328.671 1375.93 328.257 1375.93 327.747V156.817C1375.93 156.307 1376.35 155.894 1376.86 155.894C1377.41 155.894 1377.86 155.446 1377.86 154.894C1377.86 154.341 1377.41 153.894 1376.86 153.894C1376.35 153.894 1375.93 153.48 1375.93 152.97V-17.9589C1375.93 -18.4689 1376.35 -18.8824 1376.86 -18.8824C1377.41 -18.8824 1377.86 -19.3301 1377.86 -19.8824C1377.86 -20.4347 1377.41 -20.8824 1376.86 -20.8824C1376.35 -20.8824 1375.93 -21.2958 1375.93 -21.8058V-192.735C1375.93 -193.245 1376.35 -193.659 1376.86 -193.659C1377.41 -193.659 1377.86 -194.106 1377.86 -194.659C1377.86 -195.211 1377.41 -195.659 1376.86 -195.659C1376.35 -195.659 1375.93 -196.072 1375.93 -196.582V-367.512C1375.93 -368.022 1376.35 -368.435 1376.86 -368.435C1377.41 -368.435 1377.86 -368.883 1377.86 -369.435C1377.86 -369.987 1377.41 -370.435 1376.86 -370.435H1374.96L1374.93 -370.435L1374.91 -370.435H1176.83L1176.8 -370.435L1176.78 -370.435H978.705L978.678 -370.435L978.65 -370.435H780.577L780.55 -370.435L780.522 -370.435H582.449L582.422 -370.435L582.395 -370.435H384.323L384.296 -370.435L384.269 -370.435H186.193L186.166 -370.435L186.139 -370.435H-9.93654L-9.96387 -370.435L-9.99119 -370.435H-9.99999C-10.5523 -370.435 -11 -369.987 -11 -369.435C-11 -369.255 -10.9639 -369.077 -10.9639 -368.897V-195.197C-10.9639 -195.017 -11 -194.838 -11 -194.659C-11 -194.479 -10.9639 -194.3 -10.9639 -194.121V-20.4203C-10.9639 -20.2407 -11 -20.062 -11 -19.8824C-11 -19.7028 -10.9639 -19.524 -10.9639 -19.3445V154.356C-10.9639 154.535 -11 154.714 -11 154.894C-11 155.073 -10.9639 155.252 -10.9639 155.432V329.133C-10.9639 329.312 -11 329.491 -11 329.671C-11 329.85 -10.9639 330.029 -10.9639 330.208V503.909C-10.9639 504.089 -11 504.267 -11 504.447C-11 504.626 -10.9639 504.805 -10.9639 504.985V678.686C-10.9639 678.865 -11 679.044 -11 679.224C-11 679.403 -10.9639 679.582 -10.9639 679.762V853.73ZM1373.93 845C1373.93 849.418 1370.35 853 1365.93 853H1185.8C1181.39 853 1177.8 849.418 1177.8 845V688.224C1177.8 683.805 1181.39 680.224 1185.8 680.224H1365.93C1370.35 680.224 1373.93 683.805 1373.93 688.224V845ZM1175.8 845C1175.8 849.418 1172.22 853 1167.8 853H987.678C983.259 853 979.678 849.418 979.678 845V688.224C979.678 683.805 983.259 680.224 987.678 680.224H1167.8C1172.22 680.224 1175.8 683.805 1175.8 688.224V845ZM977.678 845C977.678 849.418 974.096 853 969.678 853H789.55C785.132 853 781.55 849.418 781.55 845V688.224C781.55 683.805 785.132 680.224 789.55 680.224H969.678C974.096 680.224 977.678 683.805 977.678 688.224V845ZM779.55 845C779.55 849.418 775.968 853 771.55 853H591.422C587.004 853 583.422 849.418 583.422 845V688.224C583.422 683.805 587.004 680.224 591.422 680.224H771.55C775.968 680.224 779.55 683.805 779.55 688.224V845ZM581.422 845C581.422 849.418 577.84 853 573.422 853H393.296C388.878 853 385.296 849.418 385.296 845V688.224C385.296 683.805 388.878 680.224 393.296 680.224H573.422C577.84 680.224 581.422 683.805 581.422 688.224V845ZM383.296 845C383.296 849.418 379.714 853 375.296 853H195.166C190.748 853 187.166 849.418 187.166 845V688.224C187.166 683.805 190.748 680.224 195.166 680.224H375.296C379.714 680.224 383.296 683.805 383.296 688.224V845ZM185.166 845C185.166 849.418 181.584 853 177.166 853H-0.963868C-5.38215 853 -8.96387 849.418 -8.96387 845V688.224C-8.96387 683.805 -5.38215 680.224 -0.963867 680.224H177.166C181.584 680.224 185.166 683.805 185.166 688.224V845ZM-0.963867 505.447C-5.38215 505.447 -8.96387 509.029 -8.96387 513.447V670.224C-8.96387 674.642 -5.38215 678.224 -0.963868 678.224H177.166C181.584 678.224 185.166 674.642 185.166 670.224V513.447C185.166 509.029 181.584 505.447 177.166 505.447H-0.963867ZM195.166 505.447C190.748 505.447 187.166 509.029 187.166 513.447V670.224C187.166 674.642 190.748 678.224 195.166 678.224H375.296C379.714 678.224 383.296 674.642 383.296 670.224V513.447C383.296 509.029 379.714 505.447 375.296 505.447H195.166ZM393.296 505.447C388.878 505.447 385.296 509.029 385.296 513.447V670.224C385.296 674.642 388.878 678.224 393.296 678.224H573.422C577.84 678.224 581.422 674.642 581.422 670.224V513.447C581.422 509.029 577.84 505.447 573.422 505.447H393.296ZM591.422 505.447C587.004 505.447 583.422 509.029 583.422 513.447V670.224C583.422 674.642 587.004 678.224 591.422 678.224H771.55C775.968 678.224 779.55 674.642 779.55 670.224V513.447C779.55 509.029 775.968 505.447 771.55 505.447H591.422ZM789.55 505.447C785.132 505.447 781.55 509.029 781.55 513.447V670.224C781.55 674.642 785.132 678.224 789.55 678.224H969.678C974.096 678.224 977.678 674.642 977.678 670.224V513.447C977.678 509.029 974.096 505.447 969.678 505.447H789.55ZM987.678 505.447C983.259 505.447 979.678 509.029 979.678 513.447V670.224C979.678 674.642 983.259 678.224 987.678 678.224H1167.8C1172.22 678.224 1175.8 674.642 1175.8 670.224V513.447C1175.8 509.029 1172.22 505.447 1167.8 505.447H987.678ZM1185.8 505.447C1181.39 505.447 1177.8 509.029 1177.8 513.447V670.224C1177.8 674.642 1181.39 678.224 1185.8 678.224H1365.93C1370.35 678.224 1373.93 674.642 1373.93 670.224V513.447C1373.93 509.029 1370.35 505.447 1365.93 505.447H1185.8ZM-0.963867 503.447C-5.38215 503.447 -8.96387 499.865 -8.96387 495.447V338.671C-8.96387 334.252 -5.38215 330.671 -0.963868 330.671H177.166C181.584 330.671 185.166 334.252 185.166 338.671V495.447C185.166 499.865 181.584 503.447 177.166 503.447H-0.963867ZM195.166 503.447C190.748 503.447 187.166 499.865 187.166 495.447V338.671C187.166 334.252 190.748 330.671 195.166 330.671H375.296C379.714 330.671 383.296 334.252 383.296 338.671V495.447C383.296 499.865 379.714 503.447 375.296 503.447H195.166ZM393.296 503.447C388.878 503.447 385.296 499.865 385.296 495.447V338.671C385.296 334.252 388.878 330.671 393.296 330.671H573.422C577.84 330.671 581.422 334.252 581.422 338.671V495.447C581.422 499.865 577.84 503.447 573.422 503.447H393.296ZM591.422 503.447C587.004 503.447 583.422 499.865 583.422 495.447V338.671C583.422 334.252 587.004 330.671 591.422 330.671H771.55C775.968 330.671 779.55 334.252 779.55 338.671V495.447C779.55 499.865 775.968 503.447 771.55 503.447H591.422ZM789.55 503.447C785.132 503.447 781.55 499.865 781.55 495.447V338.671C781.55 334.252 785.132 330.671 789.55 330.671H969.678C974.096 330.671 977.678 334.252 977.678 338.671V495.447C977.678 499.865 974.096 503.447 969.678 503.447H789.55ZM987.678 503.447C983.259 503.447 979.678 499.865 979.678 495.447V338.671C979.678 334.252 983.259 330.671 987.678 330.671H1167.8C1172.22 330.671 1175.8 334.252 1175.8 338.671V495.447C1175.8 499.865 1172.22 503.447 1167.8 503.447H987.678ZM1185.8 503.447C1181.39 503.447 1177.8 499.865 1177.8 495.447V338.671C1177.8 334.252 1181.39 330.671 1185.8 330.671H1365.93C1370.35 330.671 1373.93 334.252 1373.93 338.671V495.447C1373.93 499.865 1370.35 503.447 1365.93 503.447H1185.8ZM-0.963867 155.894C-5.38215 155.894 -8.96387 159.476 -8.96387 163.894V320.671C-8.96387 325.089 -5.38215 328.671 -0.963868 328.671H177.166C181.584 328.671 185.166 325.089 185.166 320.671V163.894C185.166 159.476 181.584 155.894 177.166 155.894H-0.963867ZM195.166 155.894C190.748 155.894 187.166 159.476 187.166 163.894V320.671C187.166 325.089 190.748 328.671 195.166 328.671H375.296C379.714 328.671 383.296 325.089 383.296 320.671V163.894C383.296 159.476 379.714 155.894 375.296 155.894H195.166ZM393.296 155.894C388.878 155.894 385.296 159.476 385.296 163.894V320.671C385.296 325.089 388.878 328.671 393.296 328.671H573.422C577.84 328.671 581.422 325.089 581.422 320.671V163.894C581.422 159.476 577.84 155.894 573.422 155.894H393.296ZM591.422 155.894C587.004 155.894 583.422 159.476 583.422 163.894V320.671C583.422 325.089 587.004 328.671 591.422 328.671H771.55C775.968 328.671 779.55 325.089 779.55 320.671V163.894C779.55 159.476 775.968 155.894 771.55 155.894H591.422ZM789.55 155.894C785.132 155.894 781.55 159.476 781.55 163.894V320.671C781.55 325.089 785.132 328.671 789.55 328.671H969.678C974.096 328.671 977.678 325.089 977.678 320.671V163.894C977.678 159.476 974.096 155.894 969.678 155.894H789.55ZM987.678 155.894C983.259 155.894 979.678 159.476 979.678 163.894V320.671C979.678 325.089 983.259 328.671 987.678 328.671H1167.8C1172.22 328.671 1175.8 325.089 1175.8 320.671V163.894C1175.8 159.476 1172.22 155.894 1167.8 155.894H987.678ZM1185.8 155.894C1181.39 155.894 1177.8 159.476 1177.8 163.894V320.671C1177.8 325.089 1181.39 328.671 1185.8 328.671H1365.93C1370.35 328.671 1373.93 325.089 1373.93 320.671V163.894C1373.93 159.476 1370.35 155.894 1365.93 155.894H1185.8ZM-0.963867 153.894C-5.38215 153.894 -8.96387 150.312 -8.96387 145.894V-10.8824C-8.96387 -15.3007 -5.38215 -18.8824 -0.963868 -18.8824H177.166C181.584 -18.8824 185.166 -15.3007 185.166 -10.8824V145.894C185.166 150.312 181.584 153.894 177.166 153.894H-0.963867ZM195.166 153.894C190.748 153.894 187.166 150.312 187.166 145.894V-10.8824C187.166 -15.3007 190.748 -18.8824 195.166 -18.8824H375.296C379.714 -18.8824 383.296 -15.3007 383.296 -10.8824V145.894C383.296 150.312 379.714 153.894 375.296 153.894H195.166ZM393.296 153.894C388.878 153.894 385.296 150.312 385.296 145.894V-10.8824C385.296 -15.3007 388.878 -18.8824 393.296 -18.8824H573.422C577.84 -18.8824 581.422 -15.3007 581.422 -10.8824V145.894C581.422 150.312 577.84 153.894 573.422 153.894H393.296ZM591.422 153.894C587.004 153.894 583.422 150.312 583.422 145.894V-10.8824C583.422 -15.3007 587.004 -18.8824 591.422 -18.8824H771.55C775.968 -18.8824 779.55 -15.3007 779.55 -10.8824V145.894C779.55 150.312 775.968 153.894 771.55 153.894H591.422ZM789.55 153.894C785.132 153.894 781.55 150.312 781.55 145.894V-10.8824C781.55 -15.3007 785.132 -18.8824 789.55 -18.8824H969.678C974.096 -18.8824 977.678 -15.3007 977.678 -10.8824V145.894C977.678 150.312 974.096 153.894 969.678 153.894H789.55ZM987.678 153.894C983.259 153.894 979.678 150.312 979.678 145.894V-10.8824C979.678 -15.3007 983.259 -18.8824 987.678 -18.8824H1167.8C1172.22 -18.8824 1175.8 -15.3007 1175.8 -10.8824V145.894C1175.8 150.312 1172.22 153.894 1167.8 153.894H987.678ZM1185.8 153.894C1181.39 153.894 1177.8 150.312 1177.8 145.894V-10.8824C1177.8 -15.3007 1181.39 -18.8824 1185.8 -18.8824H1365.93C1370.35 -18.8824 1373.93 -15.3007 1373.93 -10.8824V145.894C1373.93 150.312 1370.35 153.894 1365.93 153.894H1185.8ZM-0.963867 -193.659C-5.38215 -193.659 -8.96387 -190.077 -8.96387 -185.659V-28.8824C-8.96387 -24.4641 -5.38215 -20.8824 -0.963868 -20.8824H177.166C181.584 -20.8824 185.166 -24.4641 185.166 -28.8824V-185.659C185.166 -190.077 181.584 -193.659 177.166 -193.659H-0.963867ZM195.166 -193.659C190.748 -193.659 187.166 -190.077 187.166 -185.659V-28.8824C187.166 -24.4641 190.748 -20.8824 195.166 -20.8824H375.296C379.714 -20.8824 383.296 -24.4641 383.296 -28.8824V-185.659C383.296 -190.077 379.714 -193.659 375.296 -193.659H195.166ZM393.296 -193.659C388.878 -193.659 385.296 -190.077 385.296 -185.659V-28.8824C385.296 -24.4641 388.878 -20.8824 393.296 -20.8824H573.422C577.84 -20.8824 581.422 -24.4641 581.422 -28.8824V-185.659C581.422 -190.077 577.84 -193.659 573.422 -193.659H393.296ZM591.422 -193.659C587.004 -193.659 583.422 -190.077 583.422 -185.659V-28.8824C583.422 -24.4641 587.004 -20.8824 591.422 -20.8824H771.55C775.968 -20.8824 779.55 -24.4641 779.55 -28.8824V-185.659C779.55 -190.077 775.968 -193.659 771.55 -193.659H591.422ZM789.55 -193.659C785.132 -193.659 781.55 -190.077 781.55 -185.659V-28.8824C781.55 -24.4641 785.132 -20.8824 789.55 -20.8824H969.678C974.096 -20.8824 977.678 -24.4641 977.678 -28.8824V-185.659C977.678 -190.077 974.096 -193.659 969.678 -193.659H789.55ZM987.678 -193.659C983.259 -193.659 979.678 -190.077 979.678 -185.659V-28.8824C979.678 -24.4641 983.259 -20.8824 987.678 -20.8824H1167.8C1172.22 -20.8824 1175.8 -24.4641 1175.8 -28.8824V-185.659C1175.8 -190.077 1172.22 -193.659 1167.8 -193.659H987.678ZM1185.8 -193.659C1181.39 -193.659 1177.8 -190.077 1177.8 -185.659V-28.8824C1177.8 -24.4641 1181.39 -20.8824 1185.8 -20.8824H1365.93C1370.35 -20.8824 1373.93 -24.4641 1373.93 -28.8824V-185.659C1373.93 -190.077 1370.35 -193.659 1365.93 -193.659H1185.8ZM-0.963867 -195.659C-5.38215 -195.659 -8.96387 -199.24 -8.96387 -203.659V-360.435C-8.96387 -364.853 -5.38215 -368.435 -0.963868 -368.435H177.166C181.584 -368.435 185.166 -364.853 185.166 -360.435V-203.659C185.166 -199.24 181.584 -195.659 177.166 -195.659H-0.963867ZM195.166 -195.659C190.748 -195.659 187.166 -199.24 187.166 -203.659V-360.435C187.166 -364.853 190.748 -368.435 195.166 -368.435H375.296C379.714 -368.435 383.296 -364.853 383.296 -360.435V-203.659C383.296 -199.24 379.714 -195.659 375.296 -195.659H195.166ZM393.296 -195.659C388.878 -195.659 385.296 -199.24 385.296 -203.659V-360.435C385.296 -364.853 388.878 -368.435 393.296 -368.435H573.422C577.84 -368.435 581.422 -364.853 581.422 -360.435V-203.659C581.422 -199.24 577.84 -195.659 573.422 -195.659H393.296ZM591.422 -195.659C587.004 -195.659 583.422 -199.24 583.422 -203.659V-360.435C583.422 -364.853 587.004 -368.435 591.422 -368.435H771.55C775.968 -368.435 779.55 -364.853 779.55 -360.435V-203.659C779.55 -199.24 775.968 -195.659 771.55 -195.659H591.422ZM789.55 -195.659C785.132 -195.659 781.55 -199.24 781.55 -203.659V-360.435C781.55 -364.853 785.132 -368.435 789.55 -368.435H969.678C974.096 -368.435 977.678 -364.853 977.678 -360.435V-203.659C977.678 -199.24 974.096 -195.659 969.678 -195.659H789.55ZM987.678 -195.659C983.259 -195.659 979.678 -199.24 979.678 -203.659V-360.435C979.678 -364.853 983.259 -368.435 987.678 -368.435H1167.8C1172.22 -368.435 1175.8 -364.853 1175.8 -360.435V-203.659C1175.8 -199.24 1172.22 -195.659 1167.8 -195.659H987.678ZM1185.8 -195.659C1181.39 -195.659 1177.8 -199.24 1177.8 -203.659V-360.435C1177.8 -364.853 1181.39 -368.435 1185.8 -368.435H1365.93C1370.35 -368.435 1373.93 -364.853 1373.93 -360.435V-203.659C1373.93 -199.24 1370.35 -195.659 1365.93 -195.659H1185.8Z" fill="url(#paint0_linear_319_15623)" shape-rendering="crispEdges" />
  </g>
  <defs>
    <filter id="filter0_d_319_15623" x="-19" y="-370.436" width="1396.86" height="1233.44" filterUnits="userSpaceOnUse" color-interpolation-filters="sRGB">
      <feFlood flood-opacity="0" result="BackgroundImageFix" />
      <feColorMatrix in="SourceAlpha" type="matrix" values="0 0 0 0 0 0 0 0 0 0 0 0 0 0 0 0 0 0 127 0" result="hardAlpha" />
      <feOffset dx="-8" dy="8" />
      <feComposite in2="hardAlpha" operator="out" />
      <feColorMatrix type="matrix" values="0 0 0 0 0 0 0 0 0 0 0 0 0 0 0 0 0 0 1 0" />
      <feBlend mode="normal" in2="BackgroundImageFix" result="effect1_dropShadow_319_15623" />
      <feBlend mode="normal" in="SourceGraphic" in2="effect1_dropShadow_319_15623" result="shape" />
    </filter>
    <linearGradient id="paint0_linear_319_15623" x1="653" y1="1054.5" x2="834.5" y2="-34.5001" gradientUnits="userSpaceOnUse">
      <stop offset="0.0001" stop-color="#00B8DE" stop-opacity="0.01" />
      <stop offset="0.182292" stop-color="#00B8DE" stop-opacity="0.01" />
      <stop offset="0.401042" stop-color="#00B8DE" />
      <stop offset="0.671875" stop-color="#00B8DE" stop-opacity="0.13" />
      <stop offset="0.869792" stop-color="#00B8DE" stop-opacity="0.01" />
    </linearGradient>
  </defs>
</svg>