<svg width="24" height="18" viewBox="0 0 24 18" fill="none" xmlns="http://www.w3.org/2000/svg">
<path fill-rule="evenodd" clip-rule="evenodd" d="M0 3C0 1.34315 1.34315 0 3 0H21C22.6569 0 24 1.34315 24 3V15C24 16.6569 22.6569 18 21 18H3C1.34315 18 0 16.6569 0 15V3Z" fill="#BD3D44"/>
<path fill-rule="evenodd" clip-rule="evenodd" d="M2 1.38499H23.5234L23.5284 1.39135C23.8341 1.78589 24 2.27086 24 2.76999V2.76999H0L2 1.38499ZM0 4.15499H24V5.53699H0V4.15499ZM0 6.92199H24V8.30799H0V6.92199ZM0 9.69199H24V11.078H0V9.69199ZM0 12.463H24V13.848H0V12.463ZM0 15.23H24V15.23C24 15.7293 23.8316 16.2191 23.5273 16.615V16.615H0.467009V16.615C0.16489 16.2171 0 15.7296 0 15.23V15.23Z" fill="white"/>
<path fill-rule="evenodd" clip-rule="evenodd" d="M0 3C0 1.34315 1.34315 0 3 0H13.68V9.693H0V3Z" fill="#192F5D"/>
<path fill-rule="evenodd" clip-rule="evenodd" d="M1.202 0.606493L1.265 0.797993H1.666L1.343 1.03399L1.466 1.42099L1.139 1.18099L0.815001 1.41699L0.938001 1.03399L0.9 0.886719L0.938001 0.82L1.019 0.797993L1.12064 0.649413C1.13901 0.622554 1.16946 0.606493 1.202 0.606493V0.606493ZM3.42 0.414993L3.543 0.797993H3.948L3.621 1.03399L3.744 1.42099L3.42 1.18099L3.093 1.41699L3.216 1.03399L2.893 0.797993H3.293L3.42 0.414993ZM5.698 0.414993L5.825 0.797993H6.222L5.899 1.03399L6.022 1.42099L5.695 1.18099L5.371 1.41699L5.495 1.03399L5.168 0.797993H5.572L5.698 0.414993ZM7.98 0.414993L8.103 0.797993H8.507L8.18 1.03399L8.307 1.42099L7.98 1.18099L7.653 1.41699L7.78 1.03399L7.453 0.797993H7.853L7.98 0.414993ZM10.258 0.414993L10.385 0.797993H10.785L10.462 1.03399L10.585 1.42099L10.258 1.18099L9.935 1.41699L10.058 1.03399L9.734 0.797993H10.135L10.258 0.414993ZM12.54 0.414993L12.663 0.797993H13.067L12.74 1.03399L12.867 1.42099L12.54 1.18099L12.213 1.41699L12.34 1.03399L12.012 0.797993H12.417L12.54 0.414993ZM2.281 1.38499L2.404 1.76899H2.809L2.482 2.00399L2.602 2.38699L2.285 2.15199L1.958 2.38699L2.074 2.00399L1.757 1.76899H2.158L2.281 1.38499ZM4.559 1.38499L4.686 1.76899H5.086L4.76 2.00399L4.886 2.38699L4.559 2.15199L4.232 2.38699L4.359 2.00399L4.032 1.76899H4.436L4.559 1.38499ZM6.841 1.38499L6.964 1.76899H7.368L7.041 2.00399L7.164 2.38699L6.841 2.15199L6.514 2.38699L6.637 2.00399L6.314 1.76899H6.714L6.841 1.38499ZM9.119 1.38499L9.246 1.76899H9.646L9.32 2.00399L9.446 2.38699L9.119 2.15199L8.796 2.38699L8.919 2.00399L8.592 1.76899H9L9.119 1.38499ZM11.401 1.38499L11.524 1.76899H11.928L11.601 2.00399L11.724 2.38699L11.401 2.15199L11.074 2.38699L11.197 2.00399L10.873 1.76899H11.274L11.401 1.38499ZM1.139 2.35199L1.265 2.74199H1.666L1.343 2.97799L1.466 3.36099L1.139 3.12199L0.815001 3.36199L0.938001 2.97399L0.611001 2.73899H1.019L1.139 2.35199ZM3.42 2.35199L3.543 2.73899H3.948L3.621 2.97399L3.744 3.35799L3.42 3.11799L3.093 3.35799L3.216 2.97099L2.893 2.73499H3.293L3.42 2.35199ZM5.698 2.35199L5.825 2.73899H6.222L5.899 2.97399L6.022 3.35799L5.695 3.11799L5.371 3.35799L5.495 2.97099L5.168 2.73499H5.572L5.698 2.35199ZM7.98 2.35199L8.103 2.73899H8.507L8.18 2.97399L8.307 3.35799L7.98 3.11799L7.653 3.35799L7.78 2.97099L7.453 2.73499H7.853L7.98 2.35199ZM10.258 2.35199L10.385 2.73899H10.785L10.462 2.97399L10.585 3.35799L10.258 3.11799L9.935 3.35799L10.058 2.97099L9.734 2.73499H10.135L10.258 2.35199ZM12.54 2.35199L12.663 2.73899H13.067L12.74 2.97399L12.867 3.35799L12.54 3.11799L12.213 3.35799L12.34 2.97099L12.012 2.73499H12.417L12.54 2.35199ZM2.281 3.32199L2.404 3.70599H2.809L2.482 3.94099L2.605 4.32799L2.281 4.08799L1.954 4.32399L2.077 3.94099L1.754 3.70599H2.154L2.281 3.32199ZM4.559 3.32199L4.686 3.70599H5.086L4.76 3.94099L4.886 4.32799L4.559 4.08799L4.232 4.32399L4.359 3.94099L4.032 3.70599H4.436L4.559 3.32199ZM6.841 3.32199L6.964 3.70599H7.368L7.041 3.94099L7.164 4.32799L6.841 4.08799L6.514 4.32399L6.637 3.94099L6.314 3.70599H6.714L6.841 3.32199ZM9.119 3.32199L9.246 3.70599H9.646L9.323 3.94099L9.446 4.32799L9.119 4.08799L8.796 4.32399L8.919 3.94099L8.592 3.70599H9L9.119 3.32199ZM11.401 3.32199L11.524 3.70599H11.928L11.601 3.94099L11.724 4.32799L11.401 4.08799L11.074 4.32399L11.197 3.94099L10.873 3.70599H11.274L11.401 3.32199ZM1.139 4.29199L1.265 4.67599H1.666L1.343 4.91199L1.466 5.29799L1.139 5.05899L0.815001 5.29499L0.938001 4.91199L0.611001 4.67599H1.019L1.139 4.29299V4.29199ZM3.42 4.29199L3.543 4.67599H3.948L3.621 4.91199L3.744 5.29499L3.42 5.05899L3.093 5.29499L3.216 4.91199L2.893 4.67599H3.293L3.42 4.29299V4.29199ZM5.698 4.29199L5.825 4.67599H6.222L5.899 4.91199L6.022 5.29799L5.695 5.05899L5.371 5.29499L5.495 4.91199L5.168 4.67599H5.572L5.698 4.29299V4.29199ZM7.98 4.29199L8.103 4.67599H8.507L8.18 4.91199L8.307 5.29799L7.98 5.05899L7.653 5.29499L7.78 4.91199L7.453 4.67599H7.853L7.98 4.29299V4.29199ZM10.258 4.29199L10.385 4.67599H10.785L10.462 4.91199L10.585 5.29799L10.258 5.05899L9.935 5.29499L10.058 4.91199L9.734 4.67599H10.135L10.258 4.29299V4.29199ZM12.54 4.29199L12.663 4.67599H13.067L12.74 4.91199L12.867 5.29799L12.54 5.05899L12.213 5.29499L12.34 4.91199L12.012 4.67599H12.417L12.54 4.29299V4.29199ZM2.28 5.26399L2.403 5.64699H2.808L2.481 5.88299L2.604 6.26599L2.28 6.02699L1.953 6.26599L2.076 5.87899L1.753 5.64399H2.153L2.28 5.26399ZM4.558 5.26399L4.685 5.64699H5.085L4.759 5.88299L4.885 6.26599L4.558 6.02699L4.231 6.26599L4.358 5.87899L4.031 5.64399H4.435L4.558 5.26399ZM6.84 5.26399L6.963 5.64699H7.367L7.04 5.88299L7.163 6.26599L6.84 6.02699L6.513 6.26599L6.636 5.87899L6.313 5.64399H6.713L6.84 5.26399ZM9.118 5.26399L9.245 5.64699H9.645L9.322 5.88299L9.445 6.26599L9.118 6.02699L8.795 6.26599L8.918 5.87899L8.591 5.64399H9L9.12 5.26399H9.118ZM11.4 5.26399L11.523 5.64699H11.927L11.6 5.88299L11.723 6.26599L11.4 6.02699L11.073 6.26599L11.196 5.87899L10.872 5.64399H11.273L11.4 5.26399ZM1.139 6.22999L1.265 6.61699H1.666L1.343 6.85199L1.466 7.23199L1.139 6.99599L0.815001 7.23199L0.938001 6.84899L0.611001 6.61299H1.019L1.139 6.22999ZM3.42 6.22999L3.543 6.61699H3.948L3.621 6.85199L3.747 7.23199L3.42 6.99599L3.093 7.23199L3.22 6.84899L2.893 6.61299H3.293L3.42 6.22999ZM5.698 6.22999L5.825 6.61699H6.222L5.899 6.85199L6.022 7.23199L5.695 6.99599L5.371 7.23199L5.495 6.84899L5.168 6.61299H5.572L5.698 6.22999ZM7.98 6.22999L8.103 6.61699H8.507L8.18 6.85199L8.307 7.23199L7.98 6.99599L7.653 7.23199L7.78 6.84899L7.453 6.61299H7.853L7.98 6.22999ZM10.258 6.22999L10.385 6.61699H10.785L10.462 6.85199L10.585 7.23199L10.258 6.99599L9.935 7.23199L10.058 6.84899L9.734 6.61299H10.135L10.258 6.22999ZM12.54 6.22999L12.663 6.61699H13.067L12.74 6.85199L12.867 7.23199L12.54 6.99599L12.213 7.23199L12.34 6.84899L12.012 6.61299H12.417L12.54 6.22999ZM2.28 7.19999L2.403 7.58299H2.808L2.481 7.81899L2.604 8.20599L2.28 7.96599L1.953 8.20199L2.076 7.81899L1.753 7.58299H2.153L2.28 7.19999ZM4.558 7.19999L4.685 7.58299H5.085L4.759 7.81899L4.885 8.20599L4.558 7.96599L4.231 8.20199L4.358 7.81899L4.031 7.58299H4.435L4.56 7.19999H4.558ZM6.84 7.19999L6.963 7.58299H7.367L7.04 7.81899L7.163 8.20599L6.84 7.96599L6.513 8.20199L6.636 7.81899L6.313 7.58299H6.713L6.84 7.19999ZM9.118 7.19999L9.245 7.58299H9.645L9.322 7.81899L9.445 8.20599L9.118 7.96599L8.795 8.20199L8.918 7.81899L8.591 7.58299H9L9.12 7.19999H9.118ZM11.4 7.19999L11.523 7.58299H11.927L11.6 7.81899L11.723 8.20599L11.4 7.96599L11.073 8.20199L11.196 7.81899L10.872 7.58299H11.273L11.4 7.19999ZM1.138 8.16999L1.264 8.55399H1.665L1.342 8.78899L1.465 9.17199L1.138 8.93699L0.814001 9.17199L0.937001 8.78599L0.610001 8.54999H1.018L1.138 8.16999ZM3.419 8.16999L3.542 8.55399H3.947L3.62 8.78899L3.746 9.17199L3.419 8.93699L3.092 9.17199L3.219 8.78599L2.892 8.54999H3.292L3.419 8.16999ZM5.697 8.16999L5.824 8.55399H6.221L5.905 8.78899L6.028 9.17199L5.701 8.93699L5.378 9.17199L5.501 8.78599L5.174 8.54999H5.578L5.697 8.16999ZM7.979 8.16999L8.102 8.55399H8.506L8.179 8.78899L8.306 9.17199L7.979 8.93699L7.652 9.17199L7.779 8.78599L7.452 8.54999H7.852L7.979 8.16999ZM10.257 8.16999L10.384 8.55399H10.784L10.461 8.78899L10.584 9.17199L10.257 8.93699L9.934 9.17199L10.057 8.78599L9.733 8.54999H10.134L10.257 8.16999ZM12.539 8.16999L12.662 8.55399H13.066L12.739 8.78899L12.866 9.17199L12.539 8.93699L12.212 9.17199L12.339 8.78599L12.011 8.54999H12.416L12.539 8.16999Z" fill="white"/>
</svg>
