<svg width="24" height="18" viewBox="0 0 24 18" fill="none" xmlns="http://www.w3.org/2000/svg">
<path d="M0 3C0 1.34315 1.34315 0 3 0H21C22.6569 0 24 1.34315 24 3V15C24 16.6569 22.6569 18 21 18H3C1.34315 18 0 16.6569 0 15V3Z" fill="#AA151B"/>
<path d="M0 4.5H24V13.5H0V4.5Z" fill="#F1BF00"/>
<path d="M3 8H7V11C7 11.5523 6.55228 12 6 12H4C3.44772 12 3 11.5523 3 11V8Z" fill="black"/>
<path d="M3 8H7V7C7 6.44772 6.55228 6 6 6H4C3.44772 6 3 6.44772 3 7V8Z" fill="black"/>
<path d="M7 8H8V11.5C8 11.7761 7.77614 12 7.5 12C7.22386 12 7 11.7761 7 11.5V8Z" fill="black"/>
<path d="M2 8H3V11.5C3 11.7761 2.77614 12 2.5 12C2.22386 12 2 11.7761 2 11.5V8Z" fill="black"/>
</svg>
