<svg width="24" height="18" viewBox="0 0 24 18" fill="none" xmlns="http://www.w3.org/2000/svg">
<path fill-rule="evenodd" clip-rule="evenodd" d="M0 3C0 1.34315 1.34315 0 3 0H21C22.6569 0 24 1.34315 24 3V15C24 16.6569 22.6569 18 21 18H3C1.34315 18 0 16.6569 0 15V3Z" fill="#229E45"/>
<path fill-rule="evenodd" clip-rule="evenodd" d="M12.052 16.35L23.358 9.01L11.984 1.65L0.640999 9.026L12.051 16.35H12.052Z" fill="#F8E509"/>
<path fill-rule="evenodd" clip-rule="evenodd" d="M16.98 9C16.9771 10.1043 16.5918 11.1735 15.8897 12.0258C15.1875 12.8781 14.2119 13.461 13.1286 13.6754C12.0454 13.8897 10.9213 13.7223 9.94748 13.2016C8.97368 12.6808 8.21026 11.839 7.787 10.819C7.5168 10.166 7.39483 9.46109 7.42989 8.75522C7.46495 8.04935 7.65617 7.36005 7.98976 6.73699C8.32335 6.11393 8.791 5.57263 9.35902 5.15211C9.92704 4.73159 10.5813 4.44231 11.2746 4.30513C11.9679 4.16795 12.683 4.18628 13.3683 4.3588C14.0537 4.53131 14.6923 4.85373 15.238 5.3028C15.7837 5.75187 16.223 6.31641 16.5243 6.95574C16.8255 7.59507 16.9811 8.29326 16.98 9V9Z" fill="#2B49A3"/>
<path fill-rule="evenodd" clip-rule="evenodd" d="M10.624 11.861L10.474 11.775L10.324 11.85L10.357 11.681L10.237 11.554L10.407 11.534L10.489 11.384L10.559 11.542L10.725 11.572L10.601 11.685L10.624 11.861V11.861ZM13.826 12.671L13.68 12.585L13.53 12.66L13.56 12.491L13.444 12.367L13.612 12.349L13.692 12.195L13.766 12.352L13.931 12.382L13.804 12.499L13.826 12.671V12.671ZM12.446 11.374L12.319 11.299L12.187 11.366L12.217 11.22L12.112 11.111L12.262 11.096L12.33 10.961L12.39 11.1L12.536 11.126L12.424 11.227L12.446 11.374ZM15.686 10.909L15.559 10.834L15.427 10.901L15.457 10.755L15.357 10.65L15.502 10.635L15.57 10.504L15.63 10.639L15.772 10.665L15.664 10.762L15.686 10.909V10.909ZM12.39 9.937L12.24 9.855L12.09 9.93L12.12 9.757L12.004 9.634L12.172 9.614L12.252 9.461L12.326 9.619L12.491 9.649L12.364 9.769L12.39 9.937V9.937ZM8.44 8.457L8.29 8.374L8.14 8.449L8.178 8.276L8.054 8.152L8.226 8.134L8.301 7.98L8.376 8.137L8.541 8.167L8.418 8.284L8.44 8.456V8.457ZM8.916 10.429L8.766 10.342L8.616 10.417L8.65 10.249L8.53 10.125L8.699 10.102L8.778 9.952L8.853 10.11L9.018 10.14L8.894 10.256L8.916 10.429V10.429ZM13.844 7.732L13.709 7.657L13.574 7.725L13.604 7.575L13.499 7.462L13.649 7.444L13.72 7.309L13.784 7.451L13.934 7.477L13.821 7.579L13.844 7.732V7.732ZM13.57 9.015L13.469 8.955L13.36 9.007L13.383 8.887L13.3 8.801L13.42 8.786L13.476 8.681L13.526 8.794L13.638 8.812L13.555 8.895L13.57 9.015V9.015ZM8.223 10.785L8.121 10.729L8.021 10.777L8.043 10.665L7.963 10.582L8.076 10.567L8.129 10.467L8.178 10.571L8.29 10.594L8.204 10.669L8.223 10.785V10.785ZM15.711 11.242L15.629 11.202L15.546 11.239L15.566 11.152L15.501 11.092L15.591 11.082L15.636 11.006L15.674 11.081L15.768 11.1L15.696 11.156" fill="#FFFFEF"/>
<path fill-rule="evenodd" clip-rule="evenodd" d="M8.224 10.785L8.122 10.729L8.022 10.778L8.044 10.665L7.964 10.583L8.077 10.568L8.13 10.466L8.179 10.571L8.291 10.594L8.205 10.669" fill="#FFFFEF"/>
<path fill-rule="evenodd" clip-rule="evenodd" d="M8.224 10.785L8.122 10.729L8.022 10.777L8.044 10.665L7.964 10.582L8.077 10.567L8.13 10.467L8.179 10.571L8.291 10.594L8.205 10.669L8.224 10.785V10.785ZM9.791 10.781L9.694 10.729L9.592 10.777L9.615 10.665L9.536 10.582L9.649 10.567L9.701 10.467L9.75 10.571L9.862 10.59L9.776 10.669L9.791 10.781V10.781ZM9.596 11.306L9.5 11.25L9.398 11.302L9.421 11.19L9.342 11.104L9.455 11.089L9.507 10.987L9.556 11.092L9.668 11.115L9.582 11.19L9.597 11.306H9.596ZM12.859 10.357L12.761 10.297L12.656 10.35L12.679 10.237L12.604 10.151L12.716 10.14L12.769 10.039L12.814 10.144L12.926 10.162L12.844 10.242L12.859 10.357V10.357ZM11.902 10.354L11.802 10.297L11.7 10.35L11.722 10.237L11.647 10.151L11.76 10.14L11.812 10.035L11.857 10.144L11.97 10.162L11.887 10.242L11.902 10.354V10.354ZM9.307 10.024L9.244 9.986L9.18 10.016L9.195 9.945L9.146 9.892L9.217 9.885L9.247 9.821L9.277 9.889L9.349 9.899L9.296 9.949L9.307 10.024V10.024ZM15.589 11.651L15.491 11.595L15.39 11.647L15.412 11.535L15.334 11.449L15.446 11.434L15.499 11.332L15.547 11.437L15.66 11.46L15.574 11.535L15.589 11.651V11.651ZM14.794 11.76L14.711 11.707L14.625 11.752L14.644 11.655L14.58 11.587L14.674 11.577L14.719 11.49L14.756 11.58L14.85 11.595L14.779 11.662L14.794 11.76V11.76ZM15.169 11.749L15.094 11.704L15.014 11.741L15.03 11.655L14.97 11.591L15.056 11.58L15.097 11.505L15.135 11.58L15.221 11.599L15.157 11.659L15.169 11.749V11.749ZM16.249 10.804L16.174 10.766L16.099 10.804L16.117 10.717L16.057 10.654L16.144 10.642L16.181 10.567L16.219 10.647L16.297 10.661L16.237 10.721L16.249 10.804V10.804ZM14.782 12.289L14.689 12.236L14.587 12.281L14.61 12.176L14.535 12.101L14.647 12.09L14.697 11.996L14.741 12.094L14.854 12.112L14.767 12.184L14.782 12.289V12.289ZM14.79 12.716L14.7 12.664L14.61 12.712L14.632 12.607L14.562 12.532L14.662 12.517L14.707 12.424L14.749 12.521L14.849 12.54L14.775 12.615L14.79 12.716ZM14.062 11.749L13.992 11.704L13.916 11.741L13.931 11.659L13.875 11.595L13.957 11.587L13.995 11.512L14.032 11.587L14.115 11.602L14.055 11.662L14.062 11.749V11.749ZM13.387 11.749L13.312 11.704L13.237 11.741L13.257 11.659L13.197 11.595L13.282 11.587L13.32 11.512L13.357 11.587L13.437 11.602L13.377 11.662L13.387 11.749V11.749ZM12.237 10.739L12.161 10.699L12.086 10.736L12.105 10.65L12.045 10.59L12.127 10.579L12.165 10.504L12.202 10.579L12.285 10.597L12.225 10.654L12.236 10.74L12.237 10.739ZM12.364 12.791L12.304 12.757L12.236 12.791L12.251 12.716L12.202 12.664L12.274 12.656L12.307 12.592L12.337 12.66L12.409 12.671L12.356 12.72L12.364 12.791V12.791ZM10.624 9.472L10.474 9.386L10.324 9.461L10.357 9.292L10.237 9.169L10.407 9.146L10.489 8.996L10.559 9.154L10.725 9.184L10.601 9.3" fill="#FFFFEF"/>
<path fill-rule="evenodd" clip-rule="evenodd" d="M16.666 10.717C16.759 10.477 16.831 10.228 16.883 9.975C14.341 7.744 11.51 6.6 7.932 6.836C7.80215 7.08714 7.69538 7.34955 7.613 7.62C9.25607 7.45264 10.9159 7.64277 12.4786 8.17735C14.0412 8.71194 15.4697 9.57831 16.666 10.717V10.717Z" fill="white"/>
<path d="M15.524 9.465L15.61 9.514C15.5977 9.53947 15.5942 9.56831 15.6 9.596C15.6084 9.62327 15.627 9.64621 15.652 9.66C15.678 9.679 15.704 9.69 15.727 9.686C15.7365 9.68585 15.7458 9.68341 15.7542 9.67888C15.7625 9.67436 15.7697 9.66788 15.775 9.66C15.7818 9.65003 15.7846 9.63793 15.783 9.626C15.7798 9.6123 15.7733 9.59959 15.764 9.589C15.7476 9.56458 15.7288 9.54181 15.708 9.521C15.6771 9.48934 15.6538 9.45103 15.64 9.409C15.6307 9.37707 15.6331 9.34287 15.6469 9.31259C15.6607 9.28232 15.6848 9.25798 15.715 9.244C15.7424 9.23225 15.7729 9.22946 15.802 9.236C15.8371 9.24417 15.8701 9.25949 15.899 9.281C15.952 9.319 15.985 9.356 15.997 9.401C16.0022 9.42211 16.0028 9.4441 15.9989 9.46548C15.9949 9.48686 15.9864 9.50715 15.974 9.525L15.884 9.469C15.895 9.446 15.899 9.424 15.892 9.405C15.888 9.386 15.872 9.368 15.847 9.353C15.8277 9.33714 15.8039 9.3277 15.779 9.326C15.772 9.32579 15.7651 9.32755 15.7591 9.33109C15.7531 9.33463 15.7482 9.3398 15.745 9.346C15.738 9.356 15.738 9.368 15.742 9.383C15.7557 9.41445 15.7762 9.44246 15.802 9.465C15.8301 9.49374 15.8552 9.52523 15.877 9.559C15.8902 9.58358 15.8961 9.61143 15.894 9.63925C15.8919 9.66708 15.8818 9.69371 15.865 9.716C15.8479 9.74156 15.8235 9.76142 15.795 9.773C15.7667 9.78552 15.7353 9.78902 15.705 9.783C15.6668 9.7743 15.6307 9.75797 15.599 9.735C15.543 9.698 15.509 9.656 15.498 9.611C15.4856 9.56004 15.4935 9.50625 15.52 9.461L15.524 9.465V9.465ZM15.089 9.18L15.183 9.229C15.1713 9.25468 15.1685 9.28353 15.175 9.311C15.185 9.337 15.204 9.358 15.228 9.371C15.258 9.391 15.28 9.398 15.303 9.394C15.325 9.394 15.34 9.383 15.352 9.364C15.3576 9.35504 15.36 9.34449 15.359 9.334C15.3575 9.31944 15.3508 9.30592 15.34 9.296C15.3208 9.27297 15.3008 9.25062 15.28 9.229C15.2472 9.20031 15.2215 9.16436 15.205 9.124C15.1948 9.09152 15.1968 9.05646 15.2106 9.02536C15.2244 8.99425 15.2491 8.96924 15.28 8.955C15.3059 8.94313 15.3349 8.9393 15.363 8.944C15.3975 8.94976 15.4304 8.96234 15.46 8.981C15.517 9.019 15.55 9.056 15.562 9.098C15.5688 9.119 15.571 9.14122 15.5684 9.16314C15.5658 9.18506 15.5585 9.20616 15.547 9.225L15.453 9.173C15.464 9.146 15.468 9.128 15.46 9.109C15.4505 9.08635 15.4336 9.06764 15.412 9.056C15.391 9.04113 15.3657 9.03342 15.34 9.034C15.3338 9.03448 15.3279 9.03647 15.3226 9.03978C15.3174 9.04309 15.3131 9.04763 15.31 9.053C15.303 9.063 15.303 9.075 15.307 9.09C15.3223 9.12159 15.3437 9.14981 15.37 9.173C15.3991 9.19937 15.4243 9.22966 15.445 9.263C15.4598 9.28649 15.4677 9.31371 15.4677 9.3415C15.4677 9.36929 15.4598 9.3965 15.445 9.42C15.4289 9.44607 15.4057 9.46691 15.378 9.48C15.3499 9.49286 15.3184 9.4967 15.288 9.491C15.2494 9.48489 15.2124 9.4713 15.179 9.451C15.1305 9.42516 15.0932 9.38247 15.074 9.331C15.0596 9.28093 15.0649 9.22722 15.089 9.181V9.18ZM14.557 9.038L14.83 8.588L15.16 8.794L15.115 8.869L14.875 8.719L14.815 8.82L15.04 8.959L14.992 9.034L14.767 8.895L14.692 9.019L14.942 9.169L14.898 9.244L14.56 9.038H14.557ZM13.78 8.4L13.822 8.325L14.024 8.426L13.93 8.614C13.9 8.621 13.863 8.625 13.818 8.621C13.7747 8.61641 13.7327 8.60387 13.694 8.584C13.6488 8.56163 13.6102 8.52785 13.582 8.486C13.5563 8.44757 13.5431 8.4022 13.544 8.356C13.5457 8.30647 13.5588 8.25799 13.5822 8.2143C13.6056 8.17061 13.6387 8.13288 13.679 8.104C13.7187 8.07671 13.7658 8.06238 13.814 8.063C13.852 8.063 13.889 8.073 13.934 8.1C13.994 8.126 14.032 8.164 14.05 8.205C14.07 8.246 14.074 8.293 14.062 8.336L13.96 8.306C13.9663 8.28093 13.9638 8.25446 13.953 8.231C13.942 8.209 13.923 8.194 13.893 8.179C13.8755 8.16912 13.8562 8.16304 13.8362 8.16115C13.8162 8.15925 13.796 8.16159 13.777 8.168C13.739 8.178 13.705 8.213 13.679 8.265C13.653 8.318 13.642 8.366 13.653 8.408C13.6583 8.42753 13.6677 8.44568 13.6806 8.46122C13.6936 8.47676 13.7097 8.4893 13.728 8.498C13.7473 8.50962 13.7694 8.51584 13.792 8.516C13.8142 8.51934 13.8368 8.51934 13.859 8.516L13.889 8.456L13.78 8.4V8.4ZM10.398 7.564L10.473 7.039L10.63 7.065L10.672 7.433L10.818 7.095L10.975 7.118L10.9 7.635L10.8 7.62L10.863 7.211L10.698 7.605L10.597 7.59L10.555 7.166L10.495 7.579L10.398 7.564V7.564ZM9.869 7.5L9.918 6.975L10.304 7.013L10.297 7.103L10.015 7.076L10.005 7.189L10.267 7.215L10.255 7.305L9.993 7.279L9.982 7.421L10.274 7.448L10.267 7.538L9.869 7.5ZM8.118 7.174C8.118 7.118 8.129 7.076 8.144 7.039C8.1696 6.98777 8.21194 6.94684 8.264 6.923C8.30048 6.91084 8.33856 6.9041 8.377 6.903C8.41166 6.90256 8.44606 6.90906 8.47817 6.92211C8.51029 6.93516 8.53947 6.9545 8.564 6.979C8.58715 7.00765 8.60437 7.04061 8.61467 7.07598C8.62497 7.11134 8.62814 7.1484 8.624 7.185C8.62562 7.22152 8.61981 7.25799 8.60692 7.29219C8.59402 7.3264 8.57432 7.35763 8.549 7.384C8.52402 7.40712 8.49447 7.42476 8.46227 7.43578C8.43006 7.4468 8.39591 7.45096 8.362 7.448C8.32848 7.44837 8.29523 7.44191 8.26428 7.42901C8.23334 7.41612 8.20534 7.39706 8.182 7.373C8.1587 7.34551 8.14106 7.31369 8.13008 7.27937C8.1191 7.24505 8.11499 7.20891 8.118 7.173V7.174Z" fill="#309E3A"/>
<path d="M8.227 7.174C8.227 7.23 8.237 7.275 8.264 7.309C8.29 7.339 8.324 7.357 8.369 7.357C8.38837 7.35853 8.40785 7.35574 8.42601 7.34883C8.44417 7.34191 8.46056 7.33103 8.474 7.317C8.5 7.287 8.512 7.241 8.515 7.177C8.515 7.117 8.508 7.072 8.478 7.042C8.46575 7.02704 8.45034 7.01498 8.43288 7.00668C8.41542 6.99838 8.39633 6.99405 8.377 6.994C8.35727 6.99337 8.33765 6.99707 8.31951 7.00484C8.30137 7.01262 8.28515 7.02428 8.272 7.039C8.242 7.069 8.23 7.114 8.227 7.174Z" fill="#F7FFFF"/>
<path d="M8.738 7.444L8.746 6.919H8.971C9.027 6.919 9.065 6.926 9.091 6.938C9.11612 6.94627 9.13742 6.96331 9.151 6.986C9.16675 7.01219 9.17441 7.04246 9.173 7.073C9.173 7.109 9.16 7.143 9.136 7.17C9.10833 7.1959 9.07276 7.21175 9.035 7.215L9.091 7.26C9.11308 7.28629 9.13188 7.31517 9.147 7.346L9.211 7.451H9.083L9.008 7.331L8.956 7.256C8.94677 7.24584 8.93505 7.23825 8.922 7.234C8.90513 7.22889 8.88762 7.2262 8.87 7.226H8.847V7.444H8.738V7.444Z" fill="#309E3A"/>
<path d="M8.852 7.144H8.927C8.979 7.144 9.013 7.144 9.024 7.136C9.035 7.136 9.047 7.125 9.054 7.118C9.062 7.11 9.065 7.091 9.065 7.08C9.065 7.058 9.062 7.043 9.05 7.035C9.043 7.024 9.028 7.016 9.013 7.013H8.938L8.852 7.009V7.144V7.144Z" fill="white"/>
<path d="M9.337 6.945L9.532 6.956C9.5647 6.95484 9.59739 6.95854 9.629 6.967C9.659 6.977 9.684 6.996 9.704 7.02C9.7256 7.04622 9.74099 7.07699 9.749 7.11C9.76116 7.15013 9.76524 7.19228 9.761 7.234C9.76051 7.27218 9.75375 7.31001 9.741 7.346C9.72758 7.38065 9.70596 7.41153 9.678 7.436C9.65621 7.45419 9.63056 7.46719 9.603 7.474C9.581 7.481 9.547 7.481 9.509 7.481L9.311 7.47L9.337 6.945V6.945Z" fill="#309E3A"/>
<path d="M9.439 7.039L9.419 7.387H9.562C9.57032 7.38718 9.5786 7.38567 9.58633 7.38258C9.59406 7.37949 9.60109 7.37487 9.607 7.369C9.62096 7.35505 9.63126 7.33788 9.637 7.319C9.64707 7.28766 9.65213 7.25492 9.652 7.222L9.65 7.13C9.64472 7.11005 9.63439 7.09179 9.62 7.077C9.60752 7.06456 9.59201 7.05559 9.575 7.051C9.54639 7.04473 9.51727 7.04105 9.488 7.04H9.44L9.439 7.039Z" fill="white"/>
<path d="M11.91 7.883L12.034 7.373L12.199 7.41L12.319 7.448C12.3471 7.46299 12.3685 7.48798 12.379 7.518C12.394 7.548 12.394 7.583 12.386 7.624C12.3807 7.65189 12.3679 7.67781 12.349 7.699C12.3352 7.71545 12.3178 7.72865 12.2983 7.73764C12.2788 7.74663 12.2575 7.75119 12.236 7.751C12.1982 7.74871 12.1606 7.74268 12.124 7.733L12.06 7.713L12.015 7.909L11.91 7.883V7.883Z" fill="#309E3A"/>
<path d="M12.112 7.485L12.082 7.627L12.138 7.642C12.176 7.65 12.206 7.657 12.221 7.654C12.2358 7.65211 12.2495 7.64557 12.2603 7.63532C12.2711 7.62507 12.2784 7.61165 12.281 7.597C12.281 7.579 12.281 7.564 12.273 7.549C12.2649 7.53375 12.2519 7.52174 12.236 7.515L12.164 7.496L12.116 7.485H12.112V7.485Z" fill="white"/>
<path d="M12.398 8.029L12.575 7.534L12.781 7.609C12.837 7.627 12.871 7.646 12.893 7.661C12.9135 7.67827 12.9271 7.70245 12.931 7.729C12.9365 7.7574 12.9365 7.78659 12.931 7.815C12.918 7.84906 12.8941 7.87788 12.863 7.897C12.8279 7.91274 12.7887 7.91694 12.751 7.909C12.766 7.927 12.781 7.946 12.788 7.969L12.818 8.069L12.841 8.186L12.725 8.145L12.687 8.01C12.6803 7.97947 12.6716 7.9494 12.661 7.92C12.6559 7.90826 12.648 7.89796 12.638 7.89C12.631 7.879 12.616 7.871 12.59 7.864L12.57 7.856L12.496 8.066L12.398 8.029Z" fill="#309E3A"/>
<path d="M12.601 7.778L12.673 7.804C12.7025 7.81725 12.7339 7.82601 12.766 7.83C12.778 7.83 12.789 7.83 12.8 7.819C12.8118 7.81106 12.82 7.79888 12.823 7.785C12.8267 7.77807 12.8286 7.77034 12.8286 7.7625C12.8286 7.75465 12.8267 7.74693 12.823 7.74C12.8175 7.72538 12.8068 7.71329 12.793 7.706L12.718 7.68L12.643 7.654L12.598 7.778H12.601V7.778Z" fill="white"/>
<path d="M13.014 8.01C13.0267 7.96615 13.0481 7.92533 13.077 7.89C13.0961 7.86741 13.1192 7.84844 13.145 7.834C13.1683 7.82097 13.1937 7.81217 13.22 7.808C13.2593 7.80583 13.2986 7.81091 13.336 7.823C13.3694 7.83123 13.4006 7.84645 13.4277 7.86765C13.4548 7.88885 13.477 7.91556 13.493 7.946C13.523 8.006 13.523 8.078 13.501 8.16C13.4826 8.23086 13.4369 8.29159 13.374 8.329C13.3444 8.34563 13.3115 8.35559 13.2777 8.35818C13.2438 8.36077 13.2098 8.35593 13.178 8.344C13.1447 8.33536 13.1135 8.31988 13.0864 8.29853C13.0594 8.27718 13.0371 8.25044 13.021 8.22C13.0058 8.18727 12.9973 8.15185 12.9959 8.1158C12.9945 8.07975 13.0003 8.04378 13.013 8.01H13.014Z" fill="#309E3A"/>
<path d="M13.118 8.04C13.103 8.096 13.099 8.145 13.118 8.183C13.137 8.22 13.163 8.243 13.204 8.258C13.2228 8.26389 13.2426 8.2656 13.2622 8.26301C13.2817 8.26042 13.3004 8.25359 13.317 8.243C13.354 8.223 13.377 8.183 13.396 8.123C13.414 8.066 13.414 8.021 13.396 7.983C13.3884 7.96537 13.377 7.94961 13.3627 7.93683C13.3483 7.92405 13.3314 7.91455 13.313 7.909C13.2946 7.90267 13.2751 7.90037 13.2558 7.90227C13.2365 7.90417 13.2178 7.91022 13.201 7.92C13.163 7.943 13.137 7.98 13.118 8.04Z" fill="white"/>
<path d="M14.037 8.741L14.277 8.276L14.476 8.378C14.5133 8.39564 14.5474 8.41929 14.577 8.448C14.596 8.468 14.607 8.49 14.607 8.52C14.607 8.55 14.607 8.576 14.592 8.603C14.5775 8.63669 14.5507 8.66354 14.517 8.678C14.4784 8.68647 14.4381 8.6837 14.401 8.67C14.416 8.693 14.423 8.715 14.431 8.734C14.4398 8.76836 14.4448 8.80356 14.446 8.839L14.453 8.959L14.341 8.903L14.326 8.763C14.3243 8.7318 14.3206 8.70074 14.315 8.67C14.312 8.65601 14.3051 8.64317 14.295 8.633L14.251 8.606L14.232 8.596L14.131 8.79L14.037 8.741V8.741Z" fill="#309E3A"/>
<path d="M14.27 8.52L14.34 8.557C14.3673 8.57333 14.3965 8.5861 14.427 8.595C14.438 8.595 14.453 8.595 14.464 8.587C14.476 8.584 14.484 8.572 14.491 8.557C14.4987 8.54334 14.5012 8.52736 14.498 8.512C14.4933 8.49729 14.4843 8.48437 14.472 8.475C14.4502 8.46135 14.4279 8.44867 14.405 8.437L14.33 8.4L14.27 8.52Z" fill="white"/>
<path d="M15.98 9.701C16.0041 9.6627 16.0358 9.6297 16.073 9.604C16.0984 9.58768 16.1265 9.57615 16.156 9.57C16.1831 9.56451 16.2109 9.56451 16.238 9.57C16.2757 9.57781 16.3114 9.59312 16.343 9.615C16.3723 9.63315 16.3974 9.6572 16.4169 9.68561C16.4363 9.71401 16.4497 9.74616 16.456 9.78C16.4646 9.85287 16.4457 9.92631 16.403 9.986C16.3656 10.0479 16.3052 10.0925 16.235 10.11C16.2014 10.1172 16.1667 10.1173 16.1331 10.1102C16.0996 10.1032 16.0678 10.0891 16.04 10.069C16.0107 10.0509 15.9854 10.0269 15.966 9.9985C15.9465 9.97008 15.9332 9.93788 15.927 9.904C15.9175 9.83201 15.9365 9.75915 15.98 9.701V9.701Z" fill="#309E3A"/>
<path d="M16.073 9.762C16.035 9.81 16.024 9.855 16.032 9.896C16.0347 9.91504 16.0415 9.93327 16.0518 9.94949C16.0622 9.9657 16.0759 9.97951 16.092 9.99C16.1075 10.0024 16.1258 10.0109 16.1452 10.0149C16.1647 10.0189 16.1848 10.0183 16.204 10.013C16.2502 9.99743 16.289 9.96539 16.313 9.923C16.347 9.87 16.362 9.825 16.354 9.788C16.3512 9.76844 16.3444 9.74966 16.3341 9.7328C16.3238 9.71595 16.3101 9.70139 16.294 9.69C16.2781 9.67799 16.2594 9.67007 16.2397 9.66693C16.22 9.66379 16.1999 9.66553 16.181 9.672C16.144 9.679 16.106 9.709 16.069 9.762H16.073V9.762Z" fill="white"/>
<path d="M11.318 7.669L11.405 7.301L11.675 7.365L11.663 7.425L11.465 7.38L11.445 7.463L11.63 7.503L11.615 7.568L11.431 7.523L11.408 7.623L11.615 7.673L11.6 7.733L11.318 7.669V7.669Z" fill="#309E3A"/>
</svg>
