<svg width="229" height="228" fill="none" xmlns="http://www.w3.org/2000/svg"><g opacity=".7" fill="#000"><path d="m57.268 148.844-10.66 32.601H41.24a5.156 5.156 0 0 1-4.901-3.563l-6.909-21.256-8.326 24.819h-5.33a5.153 5.153 0 0 1-4.895-3.541L0 144.794h5.04a5.156 5.156 0 0 1 4.908 3.578l7.127 22.18 8.64-25.758h4.1a5.14 5.14 0 0 1 4.902 3.57l7.229 22.399 8.537-25.969h3.855c2.094 0 3.585 2.051 2.93 4.05Zm8.065 31.162c-2.356-1.237-4.196-2.96-5.527-5.156-1.33-2.197-1.992-4.698-1.992-7.491 0-2.792.661-5.287 1.992-7.483 1.324-2.196 3.17-3.919 5.527-5.156 2.356-1.236 5.018-1.861 7.985-1.861 2.967 0 5.621.618 7.956 1.861 2.341 1.237 4.174 2.96 5.497 5.156 1.324 2.196 1.993 4.698 1.993 7.483 0 2.793-.662 5.287-1.993 7.491-1.33 2.196-3.156 3.919-5.497 5.156-2.342 1.243-4.99 1.861-7.956 1.861-2.967-.007-5.629-.625-7.985-1.861Zm13.14-6.967c1.346-1.411 2.015-3.309 2.015-5.68 0-2.37-.669-4.268-2.014-5.679-1.346-1.411-3.062-2.124-5.156-2.124-2.095 0-3.825.706-5.185 2.124-1.36 1.411-2.044 3.309-2.044 5.679 0 2.378.684 4.269 2.044 5.68 1.36 1.411 3.09 2.123 5.185 2.123 2.094 0 3.81-.705 5.156-2.123Zm27.49-19.14c1.658-.699 3.57-1.048 5.73-1.048v7.542a26.562 26.562 0 0 0-1.833-.102c-2.341 0-4.174.654-5.497 1.963-1.324 1.309-1.993 3.273-1.993 5.891v13.3h-4.043a4.124 4.124 0 0 1-4.123-4.123v-24.049h5.737c1.142 0 2.058.924 2.058 2.058v1.658c.989-1.36 2.305-2.385 3.964-3.09Zm24.15 16.5-3.927 3.876v7.17h-4.043a4.124 4.124 0 0 1-4.123-4.123v-34.724h3.018a5.157 5.157 0 0 1 5.156 5.156v16.835l11.941-11.309h9.737l-11.73 11.941 12.777 16.232h-7.432a5.166 5.166 0 0 1-4.014-1.92l-7.36-9.134Zm23.039-25.605h16.653c3.978 0 7.497.756 10.552 2.276 3.054 1.52 5.425 3.658 7.119 6.414 1.695 2.756 2.538 5.971 2.538 9.636 0 3.665-.843 6.879-2.538 9.635-1.694 2.756-4.065 4.894-7.119 6.414-3.055 1.52-6.574 2.276-10.552 2.276h-11.498a5.156 5.156 0 0 1-5.155-5.155v-31.496Zm16.231 29.685c3.665 0 6.589-1.018 8.77-3.062 2.182-2.043 3.273-4.807 3.273-8.297 0-3.491-1.091-6.254-3.273-8.298-2.181-2.043-5.105-3.061-8.77-3.061h-7.752v22.289c0 .24.196.436.436.436h7.316v-.007Zm57.399-8.77c1.185 1.556 1.782 3.461 1.782 5.73 0 3.214-1.251 5.68-3.745 7.41-2.495 1.731-6.138 2.589-10.916 2.589h-13.802a5.156 5.156 0 0 1-5.156-5.156v-31.495h17.904c4.465 0 7.897.858 10.29 2.567 2.392 1.709 3.585 4.028 3.585 6.966 0 1.782-.429 3.367-1.28 4.764-.858 1.396-2.051 2.494-3.585 3.301 2.094.662 3.738 1.775 4.923 3.324Zm-23.409-14.53v8.639h8.428c2.095 0 3.68-.363 4.764-1.098 1.083-.734 1.621-1.818 1.621-3.243 0-1.433-.545-2.502-1.621-3.222-1.084-.713-2.669-1.076-4.764-1.076h-8.428Zm14.952 22.776c1.134-.734 1.701-1.869 1.701-3.403 0-3.04-2.254-4.553-6.756-4.553h-9.897v9.062h9.897c2.233-.008 3.92-.371 5.055-1.106ZM21.324 197.11h3.28c.822 0 1.556.16 2.189.487.64.327 1.134.785 1.483 1.375.35.589.531 1.265.531 2.028 0 .764-.174 1.44-.53 2.029a3.615 3.615 0 0 1-1.484 1.375c-.64.327-1.367.487-2.189.487h-3.28v-7.781Zm3.214 6.814c.633 0 1.186-.124 1.666-.364a2.62 2.62 0 0 0 1.105-1.032c.255-.444.393-.953.393-1.528 0-.574-.131-1.09-.393-1.527a2.663 2.663 0 0 0-1.105-1.032c-.48-.248-1.033-.364-1.666-.364h-2.101v5.854h2.101v-.007ZM43.704 202.949h-4.138l-.858 1.949h-1.15l3.528-7.788h1.098l3.534 7.788h-1.17l-.844-1.949Zm-.386-.894-1.68-3.818-1.68 3.818h3.36ZM56.384 198.077h-2.67v-.967h6.444v.967h-2.669v6.821h-1.098v-6.821h-.007ZM74.282 202.949h-4.138l-.858 1.949h-1.15l3.528-7.788h1.098l3.534 7.788h-1.17l-.844-1.949Zm-.386-.894-1.68-3.818-1.68 3.818h3.36ZM103.451 201.539c.262.327.393.749.393 1.25 0 .677-.254 1.193-.763 1.557-.51.363-1.251.545-2.218.545h-3.716v-7.788h3.49c.887 0 1.578.181 2.065.53.488.357.728.851.728 1.477 0 .407-.095.763-.284 1.054a1.805 1.805 0 0 1-.764.676c.459.139.815.371 1.069.699Zm-5.192-3.527v2.494h2.284c.574 0 1.01-.109 1.316-.32.305-.211.458-.524.458-.931 0-.407-.153-.72-.458-.931-.306-.211-.749-.32-1.316-.32h-2.284v.008Zm3.985 5.672c.32-.211.48-.531.48-.982 0-.865-.632-1.302-1.905-1.302h-2.56v2.589h2.56c.625 0 1.105-.102 1.425-.305ZM114.707 204.091c-.582-.596-.865-1.447-.865-2.56v-4.428h1.112v4.385c0 1.665.728 2.501 2.189 2.501.713 0 1.258-.203 1.637-.618.378-.414.567-1.04.567-1.883v-4.385h1.076v4.428c0 1.12-.291 1.978-.865 2.567-.575.589-1.389.888-2.422.888-1.04 0-1.847-.299-2.429-.895ZM131.619 204.709c-.545-.182-.974-.414-1.287-.705l.415-.866c.298.269.676.488 1.141.655a4.19 4.19 0 0 0 1.433.247c.647 0 1.127-.109 1.447-.327.32-.218.48-.509.48-.873 0-.269-.087-.487-.262-.647a1.734 1.734 0 0 0-.647-.385c-.255-.088-.618-.19-1.084-.299a10.917 10.917 0 0 1-1.418-.421 2.298 2.298 0 0 1-.923-.655c-.255-.291-.386-.691-.386-1.185 0-.415.109-.793.328-1.12.218-.327.552-.604.996-.8.443-.196.996-.298 1.658-.298.458 0 .909.058 1.36.174a3.64 3.64 0 0 1 1.149.509l-.364.888a3.982 3.982 0 0 0-1.047-.473 3.849 3.849 0 0 0-1.091-.16c-.632 0-1.105.116-1.418.342-.313.232-.473.523-.473.887 0 .269.088.487.27.654.181.168.4.299.661.393.262.095.618.189 1.077.298.589.138 1.054.284 1.41.422.357.138.662.356.917.647.254.291.385.677.385 1.171 0 .407-.109.778-.334 1.12-.226.334-.56.604-1.011.8-.451.196-1.011.298-1.666.298a5.83 5.83 0 0 1-1.716-.291ZM146.303 197.11h1.112v7.788h-1.112v-7.788ZM164.788 197.11v7.788h-.909l-4.669-5.803v5.803h-1.112v-7.788h.909l4.668 5.81v-5.81h1.113ZM181.113 203.924v.967h-5.65v-7.788h5.498v.967h-4.385v2.392h3.905v.946h-3.905v2.516h4.537ZM191.832 204.709c-.545-.182-.974-.414-1.287-.705l.414-.866a3.4 3.4 0 0 0 1.142.655 4.19 4.19 0 0 0 1.433.247c.647 0 1.127-.109 1.447-.327.32-.218.48-.509.48-.873 0-.269-.087-.487-.262-.647a1.742 1.742 0 0 0-.647-.385c-.255-.088-.618-.19-1.084-.299a10.917 10.917 0 0 1-1.418-.421 2.298 2.298 0 0 1-.923-.655c-.255-.291-.386-.691-.386-1.185 0-.415.109-.793.327-1.12.219-.327.553-.604.997-.8.443-.196.996-.298 1.658-.298.458 0 .909.058 1.36.174a3.64 3.64 0 0 1 1.149.509l-.364.888a3.982 3.982 0 0 0-1.047-.473 3.854 3.854 0 0 0-1.091-.16c-.633 0-1.105.116-1.418.342-.313.232-.473.523-.473.887 0 .269.088.487.269.654.182.168.4.299.662.393.262.095.618.189 1.076.298.59.138 1.055.284 1.411.422.357.138.662.356.917.647.254.291.385.677.385 1.171 0 .407-.109.778-.335 1.12-.225.334-.559.604-1.01.8-.451.196-1.011.298-1.666.298a5.83 5.83 0 0 1-1.716-.291ZM207.086 204.709c-.545-.182-.974-.414-1.287-.705l.414-.866a3.4 3.4 0 0 0 1.142.655c.465.167.938.247 1.433.247.647 0 1.127-.109 1.447-.327.32-.218.48-.509.48-.873 0-.269-.087-.487-.262-.647a1.75 1.75 0 0 0-.647-.385c-.255-.088-.618-.19-1.084-.299a10.917 10.917 0 0 1-1.418-.421 2.298 2.298 0 0 1-.923-.655c-.255-.291-.386-.691-.386-1.185 0-.415.109-.793.327-1.12.219-.327.553-.604.997-.8.443-.196.996-.298 1.658-.298.458 0 .909.058 1.36.174a3.64 3.64 0 0 1 1.149.509l-.364.888a3.982 3.982 0 0 0-1.047-.473 3.854 3.854 0 0 0-1.091-.16c-.633 0-1.105.116-1.418.342-.313.232-.473.523-.473.887 0 .269.088.487.269.654.182.168.4.299.662.393.262.095.618.189 1.076.298.589.138 1.055.284 1.411.422.357.138.662.356.917.647.254.291.385.677.385 1.171 0 .407-.109.778-.335 1.12-.225.334-.56.604-1.01.8-.451.196-1.011.298-1.666.298a5.824 5.824 0 0 1-1.716-.291ZM137.754 121.734H93.838c-15.955 0-28.944-12.981-28.944-28.943V48.875h72.86v72.859ZM75.199 59.179v33.612c0 10.276 8.356 18.631 18.631 18.631h33.612V59.179H75.199Z"/><path d="M90.814 23h43.917c15.962 0 28.943 12.98 28.943 28.943V95.86h-72.86V23Zm62.548 62.555V51.943c0-10.275-8.355-18.631-18.631-18.631h-33.612v52.243h52.243Z"/></g></svg>